<svg xmlns="http://www.w3.org/2000/svg" viewBox="0 0 53.19 46.17"><defs><style>.cls-1{fill:#d2ffde;stroke:#7db77d;}.cls-1,.cls-2,.cls-3,.cls-4{stroke-miterlimit:10;stroke-width:2px;}.cls-2{fill:#d6fcfa;}.cls-2,.cls-4{stroke:#82bcb6;}.cls-3{fill:#d8b6a7;stroke:#a86863;}.cls-4{fill:none;}</style></defs><title>Asset 22</title><g id="Layer_2" data-name="Layer 2"><g id="Layer_1-2" data-name="Layer 1"><path class="cls-1" d="M31.91,10.68l-.25-6.43A3.4,3.4,0,0,0,28.14,1L4.25,1.93A3.39,3.39,0,0,0,1,5.44l.61,15.62a3.37,3.37,0,0,0,3.51,3.25l14.62-.56C19.88,17.76,25,12.73,31.91,10.68Z"/><path class="cls-2" d="M38,40.23c-.81,3.52-5.81,4.21-5.81,4.21,2.44-1.33,3-2.84,3.05-3.95a1.79,1.79,0,0,0-1.5-1.77A17.9,17.9,0,0,1,27.05,36c-7.58-5.12-8.83-13.45-4.55-19.79S36.07,9.39,44,14c8.55,5,10.38,11.4,5.69,19.26-2.41,4-5.88,6.26-10.25,5.95A1.32,1.32,0,0,0,38,40.23Z"/><path class="cls-3" d="M13.33,7.83l.33,9.61a.26.26,0,0,0,.4.21l7.9-5a.19.19,0,0,0,0-.33l-8.3-4.67A.22.22,0,0,0,13.33,7.83Z"/><path class="cls-4" d="M25.67,19.54A5.79,5.79,0,0,1,30,19c1.63.55,1.63,1.7,3.38,2.41,2.17.9,3.11-.5,5.43.41,1.77.69,1.7,1.68,3.17,1.89s2.28-.88,3.94-.71a4.85,4.85,0,0,1,2.88,1.54"/><path class="cls-4" d="M25.55,23.52a5.37,5.37,0,0,1,4.11-.64c1.54.51,1.52,1.65,3.17,2.32,2.05.83,3-.57,5.17.28,1.67.64,1.58,1.63,3,1.81s2.19-.93,3.76-.8A4.35,4.35,0,0,1,47.45,28"/><path class="cls-4" d="M26.13,27.8a4.85,4.85,0,0,1,3.8-.78c1.4.44,1.33,1.56,2.82,2.15,1.85.74,2.75-.67,4.73.08,1.51.57,1.39,1.54,2.67,1.66s2-1,3.48-.93a3.56,3.56,0,0,1,2.43,1.35"/></g></g></svg>