<svg xmlns="http://www.w3.org/2000/svg" viewBox="0 0 1920 474"><defs><style>.cls-1{fill:#edfced;}.cls-2{fill:#29abe2;}.cls-3{fill:#c69c95;}.cls-4{fill:#c69c6d;}.cls-5{fill:#f7931e;}.cls-6{fill:#f15a24;}.cls-7{fill:#754c24;}.cls-8{fill:#c4333e;}.cls-9{fill:#fcfcfc;}.cls-10{fill:#020202;}.cls-11{fill:#f2e938;}.cls-12{fill:#8c8c8c;}.cls-13,.cls-14,.cls-15,.cls-27{fill:none;}.cls-13{stroke:#666;}.cls-13,.cls-14{stroke-linejoin:round;stroke-width:0.75px;}.cls-14{stroke:#fcee21;}.cls-15{stroke:#fff;}.cls-15,.cls-24,.cls-25,.cls-26,.cls-27{stroke-miterlimit:10;}.cls-16{fill:#1b1464;}.cls-17{fill:#fff;}.cls-18{fill:#c1272d;}.cls-19{fill:#00a99d;}.cls-20{fill:#22b573;}.cls-21{fill:#ffefd0;}.cls-22{fill:#0071bc;}.cls-23{fill:#25404f;}.cls-24{fill:#d2ffde;stroke:#7db77d;}.cls-24,.cls-25,.cls-26,.cls-27{stroke-width:2px;}.cls-25{fill:#d6fcfa;}.cls-25,.cls-27{stroke:#82bcb6;}.cls-26{fill:#d8b6a7;stroke:#a86863;}</style></defs><g id="Layer_2" data-name="Layer 2"><rect class="cls-1" width="1920" height="474"/></g><g id="Layer_1" data-name="Layer 1"><rect class="cls-2" x="1599.8" y="247.91" width="14.46" height="101.45" rx="7.23" transform="translate(2264.74 1668.13) rotate(-124.33)"/><circle class="cls-2" cx="1601" cy="179" r="7"/><circle class="cls-3" cx="1641" cy="148" r="6"/><rect class="cls-4" x="1639.61" y="258.25" width="5.85" height="10.79" rx="2" transform="translate(4.99 441.66) rotate(-19.65)"/><rect class="cls-4" x="1638.97" y="258.71" width="25.41" height="15.24" rx="6" transform="translate(261.67 1074.36) rotate(-43.1)"/><rect class="cls-2" x="1512" y="177" width="62" height="145" rx="31"/><rect class="cls-5" x="897.12" y="52" width="405" height="360" rx="15.3"/><rect class="cls-6" x="910.63" y="299" width="378" height="87"/><rect class="cls-5" x="1365" y="272" width="350" height="19" rx="4.15"/><path class="cls-5" d="M1688.89,551H1395.11a8.11,8.11,0,0,1-8.11-8.11V416h310V542.89A8.11,8.11,0,0,1,1688.89,551Z" transform="translate(-2 -126)"/><rect class="cls-4" x="1561" y="163" width="8" height="13" rx="4"/><rect class="cls-4" x="1520" y="165" width="8" height="13" rx="4"/><rect class="cls-4" x="1524" y="146" width="40" height="62" rx="20"/><rect class="cls-7" x="1540" y="169" width="8" height="13" rx="4"/><circle cx="1534" cy="167" r="2.5"/><path d="M1536,291a2,2,0,1,1-2,2,2,2,0,0,1,2-2m0-1a3,3,0,1,0,3,3,3,3,0,0,0-3-3Z" transform="translate(-2 -126)"/><circle cx="1554" cy="167" r="2.5"/><path d="M1556,291a2,2,0,1,1-2,2,2,2,0,0,1,2-2m0-1a3,3,0,1,0,3,3,3,3,0,0,0-3-3Z" transform="translate(-2 -126)"/><path d="M1539,318.5a6.61,6.61,0,0,0,5.35,6.31A4.94,4.94,0,0,1,1544,323a5,5,0,0,1,8.85-3.16,5.92,5.92,0,0,0,.15-1.34,6,6,0,0,0-.54-2.5h-12.92A6,6,0,0,0,1539,318.5Z" transform="translate(-2 -126)"/><path class="cls-8" d="M1549,318a5,5,0,0,0-5,5,4.94,4.94,0,0,0,.35,1.81,7.45,7.45,0,0,0,1.65.19,6.9,6.9,0,0,0,6.85-5.16A5,5,0,0,0,1549,318Z" transform="translate(-2 -126)"/><path class="cls-9" d="M1546,312a7,7,0,0,0-6.46,4h12.92A7,7,0,0,0,1546,312Z" transform="translate(-2 -126)"/><circle cx="1529.5" cy="145.5" r="12.5"/><circle cx="1520" cy="160" r="7"/><circle cx="1519" cy="151" r="7"/><circle cx="1544.5" cy="147.5" r="4.5"/><circle cx="1549" cy="142" r="6"/><circle cx="1542.5" cy="140.5" r="4.5"/><circle cx="1568" cy="162" r="7"/><circle cx="1555.5" cy="146.5" r="4.5"/><circle cx="1564.5" cy="150.5" r="9.5"/><circle cx="1558" cy="136" r="11"/><circle cx="1542.5" cy="132.5" r="8.5"/><rect class="cls-10" x="1522" y="157" width="5" height="16" rx="2.5"/><rect class="cls-10" x="1560" y="157" width="5" height="16" rx="2.5"/><circle class="cls-10" cx="1526.5" cy="127.5" r="13.5"/><circle class="cls-10" cx="1516" cy="141" r="9"/><circle class="cls-10" cx="1546.5" cy="119.5" r="10.5"/><circle class="cls-10" cx="1560.5" cy="124.5" r="6.5"/><circle class="cls-10" cx="1571.5" cy="152.5" r="7.5"/><circle class="cls-11" cx="1542.83" cy="102.5" r="10.5"/><rect class="cls-11" x="1538.83" y="109" width="8" height="8"/><rect class="cls-12" x="1537.83" y="115" width="10" height="6" rx="1.23"/><path class="cls-13" d="M1544.8,241V235.5h2.7a1.39,1.39,0,0,0,0-2h-4a1.39,1.39,0,0,1,0-2h4a1.39,1.39,0,0,0,0-2h-5" transform="translate(-2 -126)"/><line class="cls-14" x1="1530.5" y1="105.5" x2="1523.5" y2="108.5"/><line class="cls-14" x1="1531.5" y1="96.5" x2="1523.5" y2="93.5"/><line class="cls-14" x1="1537.5" y1="90.5" x2="1533.5" y2="83.5"/><line class="cls-14" x1="1555.68" y1="105.19" x2="1562.68" y2="108.19"/><line class="cls-14" x1="1554.68" y1="96.19" x2="1562.68" y2="93.19"/><line class="cls-14" x1="1548.68" y1="90.19" x2="1552.68" y2="83.19"/><rect class="cls-15" x="1526.5" y="161.5" width="14" height="11"/><rect class="cls-15" x="1547.5" y="161.5" width="14" height="11"/><path class="cls-15" d="M1542.54,293.05s3.74-3.22,7,0" transform="translate(-2 -126)"/><rect class="cls-2" x="1475.74" y="244.91" width="14.46" height="101.45" rx="7.23" transform="translate(400.48 1227.53) rotate(-55.67)"/><circle class="cls-2" cx="1485" cy="176" r="7"/><circle class="cls-3" cx="1445" cy="145" r="6"/><rect class="cls-4" x="1442.06" y="257.71" width="10.79" height="5.85" rx="2" transform="translate(713.28 1410.18) rotate(-70.35)"/><rect class="cls-4" x="1430.7" y="250.63" width="15.24" height="25.41" rx="6" transform="translate(261.31 1007.66) rotate(-46.9)"/><rect class="cls-16" x="1500.75" y="211" width="84" height="54" rx="12"/><rect class="cls-2" x="1508.75" y="227" width="9" height="14" rx="4.5"/><circle class="cls-17" cx="1541.25" cy="239.5" r="5.5"/><rect class="cls-18" x="1553.75" y="219" width="19" height="16"/><rect class="cls-19" x="1565.75" y="357.21" width="14" height="11.79" transform="translate(-19.72 512.43) rotate(-22.82)"/><rect class="cls-16" x="1501.25" y="265" width="83" height="7" rx="1.89"/><rect class="cls-6" x="910.63" y="77" width="378" height="87"/><rect class="cls-6" x="910.63" y="188" width="378" height="87"/><path class="cls-20" d="M930.53,213H930v76h.53a3.63,3.63,0,0,0,3.64-3.64V216.64A3.64,3.64,0,0,0,930.53,213Z" transform="translate(-2 -126)"/><path class="cls-20" d="M917,214v-1a3.64,3.64,0,0,0-3.5,3.63v68.71A3.62,3.62,0,0,0,917,289V214Z" transform="translate(-2 -126)"/><rect class="cls-21" x="915" y="88" width="13" height="74"/><path class="cls-20" d="M953,212.7h-.53v76H953a3.64,3.64,0,0,0,3.64-3.64V216.34A3.64,3.64,0,0,0,953,212.7Z" transform="translate(-2 -126)"/><path class="cls-20" d="M939.48,213.7v-1a3.63,3.63,0,0,0-3.5,3.63v68.71a3.64,3.64,0,0,0,3.5,3.63v-75Z" transform="translate(-2 -126)"/><rect class="cls-21" x="937.48" y="87.7" width="13" height="74"/><path class="cls-18" d="M975,212.33h-.53v76H975a3.64,3.64,0,0,0,3.64-3.64V216A3.64,3.64,0,0,0,975,212.33Z" transform="translate(-2 -126)"/><path class="cls-18" d="M961.49,213.33v-1A3.63,3.63,0,0,0,958,216v68.71a3.65,3.65,0,0,0,3.51,3.63v-75Z" transform="translate(-2 -126)"/><rect class="cls-21" x="959.49" y="87.33" width="13" height="74"/><path class="cls-20" d="M997,212.33h-.53v76H997a3.64,3.64,0,0,0,3.64-3.64V216A3.64,3.64,0,0,0,997,212.33Z" transform="translate(-2 -126)"/><path class="cls-20" d="M983.49,213.33v-1A3.63,3.63,0,0,0,980,216v68.71a3.65,3.65,0,0,0,3.51,3.63v-75Z" transform="translate(-2 -126)"/><rect class="cls-21" x="981.49" y="87.33" width="13" height="74"/><path class="cls-22" d="M1018.55,212.07H1018v76h.53a3.64,3.64,0,0,0,3.64-3.64V215.71A3.64,3.64,0,0,0,1018.55,212.07Z" transform="translate(-2 -126)"/><path class="cls-22" d="M1005,213.07v-1a3.63,3.63,0,0,0-3.5,3.62v68.72a3.63,3.63,0,0,0,3.5,3.62v-75Z" transform="translate(-2 -126)"/><rect class="cls-21" x="1003.02" y="87.07" width="13" height="74"/><path class="cls-18" d="M1040.77,211.36h-.52v76h.52a3.64,3.64,0,0,0,3.65-3.64V215A3.64,3.64,0,0,0,1040.77,211.36Z" transform="translate(-2 -126)"/><path class="cls-18" d="M1027.25,212.36v-1a3.63,3.63,0,0,0-3.51,3.62v68.72a3.63,3.63,0,0,0,3.51,3.62v-75Z" transform="translate(-2 -126)"/><rect class="cls-21" x="1025.25" y="86.36" width="13" height="74"/><path class="cls-18" d="M1062.77,211.36h-.52v76h.52a3.64,3.64,0,0,0,3.65-3.64V215A3.64,3.64,0,0,0,1062.77,211.36Z" transform="translate(-2 -126)"/><path class="cls-18" d="M1049.25,212.36v-1a3.63,3.63,0,0,0-3.51,3.62v68.72a3.63,3.63,0,0,0,3.51,3.62v-75Z" transform="translate(-2 -126)"/><rect class="cls-21" x="1047.25" y="86.36" width="13" height="74"/><path class="cls-23" d="M1084.77,211.36h-.52v76h.52a3.64,3.64,0,0,0,3.65-3.64V215A3.64,3.64,0,0,0,1084.77,211.36Z" transform="translate(-2 -126)"/><path class="cls-23" d="M1071.25,212.36v-1a3.63,3.63,0,0,0-3.51,3.62v68.72a3.63,3.63,0,0,0,3.51,3.62v-75Z" transform="translate(-2 -126)"/><rect class="cls-21" x="1069.25" y="86.36" width="13" height="74"/><path class="cls-22" d="M1152.81,227.94l-.42-.33-.62.78-46.21,57.8-.62.78.42.33a3.63,3.63,0,0,0,5.11-.57l42.91-53.67A3.65,3.65,0,0,0,1152.81,227.94Z" transform="translate(-2 -126)"/><path class="cls-22" d="M1141.61,220.27l.62-.77a3.63,3.63,0,0,0-5,.65l-42.91,53.67a3.63,3.63,0,0,0,.48,5l.61-.76Z" transform="translate(-2 -126)"/><rect class="cls-21" x="1086.59" y="246.73" width="74" height="13" transform="translate(222.22 846.76) rotate(-51.36)"/><path class="cls-22" d="M1198.73,286.8v-.53l-1,0-74-1.29-1,0v.53a3.64,3.64,0,0,0,3.58,3.7l68.7,1.21A3.66,3.66,0,0,0,1198.73,286.8Z" transform="translate(-2 -126)"/><path class="cls-22" d="M1198,273.26h1a3.63,3.63,0,0,0-3.57-3.56l-68.7-1.21a3.65,3.65,0,0,0-3.69,3.44l1,0Z" transform="translate(-2 -126)"/><rect class="cls-21" x="1154.35" y="242.11" width="13" height="74" transform="translate(859.46 1308.9) rotate(-89)"/><path class="cls-20" d="M1216.78,264.52V264h-1l-74-.74h-1v.53a3.63,3.63,0,0,0,3.6,3.67l68.71.69A3.64,3.64,0,0,0,1216.78,264.52Z" transform="translate(-2 -126)"/><path class="cls-20" d="M1215.91,251h1a3.63,3.63,0,0,0-3.59-3.54l-68.71-.69a3.63,3.63,0,0,0-3.66,3.47h1Z" transform="translate(-2 -126)"/><rect class="cls-21" x="1172.35" y="220.11" width="13" height="74" transform="matrix(0.01, -1, 1, 0.01, 907.98, 1307.33)"/><path class="cls-23" d="M931,324.07h-.53v76H931a3.64,3.64,0,0,0,3.64-3.64V327.71A3.64,3.64,0,0,0,931,324.07Z" transform="translate(-2 -126)"/><path class="cls-23" d="M917.48,325.07v-1a3.63,3.63,0,0,0-3.5,3.62v68.72a3.63,3.63,0,0,0,3.5,3.62v-75Z" transform="translate(-2 -126)"/><rect class="cls-21" x="915.48" y="199.07" width="13" height="74"/><path class="cls-20" d="M952.92,324.11h-.52v76h.52a3.64,3.64,0,0,0,3.65-3.64V327.75A3.64,3.64,0,0,0,952.92,324.11Z" transform="translate(-2 -126)"/><path class="cls-20" d="M939.4,325.11v-1a3.63,3.63,0,0,0-3.51,3.62v68.72a3.63,3.63,0,0,0,3.51,3.62v-75Z" transform="translate(-2 -126)"/><rect class="cls-21" x="937.4" y="199.11" width="13" height="74"/><path class="cls-22" d="M974.92,323.11h-.52v76h.52a3.64,3.64,0,0,0,3.65-3.64V326.75A3.64,3.64,0,0,0,974.92,323.11Z" transform="translate(-2 -126)"/><path class="cls-22" d="M961.4,324.11v-1a3.63,3.63,0,0,0-3.51,3.62v68.72a3.63,3.63,0,0,0,3.51,3.62v-75Z" transform="translate(-2 -126)"/><rect class="cls-21" x="959.4" y="198.11" width="13" height="74"/><path class="cls-23" d="M996.92,323.11h-.52v76h.52a3.64,3.64,0,0,0,3.65-3.64V326.75A3.64,3.64,0,0,0,996.92,323.11Z" transform="translate(-2 -126)"/><path class="cls-23" d="M983.4,324.11v-1a3.63,3.63,0,0,0-3.51,3.62v68.72a3.63,3.63,0,0,0,3.51,3.62v-75Z" transform="translate(-2 -126)"/><rect class="cls-21" x="981.4" y="198.11" width="13" height="74"/><path class="cls-23" d="M1018.92,323.11h-.52v76h.52a3.64,3.64,0,0,0,3.65-3.64V326.75A3.64,3.64,0,0,0,1018.92,323.11Z" transform="translate(-2 -126)"/><path class="cls-23" d="M1005.4,324.11v-1a3.63,3.63,0,0,0-3.51,3.62v68.72a3.63,3.63,0,0,0,3.51,3.62v-75Z" transform="translate(-2 -126)"/><rect class="cls-21" x="1003.4" y="198.11" width="13" height="74"/><path class="cls-18" d="M1041.54,323.23H1041v76h.53a3.64,3.64,0,0,0,3.64-3.64V326.88A3.64,3.64,0,0,0,1041.54,323.23Z" transform="translate(-2 -126)"/><path class="cls-18" d="M1028,324.23v-1a3.63,3.63,0,0,0-3.51,3.63v68.71a3.65,3.65,0,0,0,3.51,3.63v-75Z" transform="translate(-2 -126)"/><rect class="cls-21" x="1026.01" y="198.23" width="13" height="74"/><path class="cls-20" d="M1064.47,322.74h-.53v76h.53a3.64,3.64,0,0,0,3.64-3.64V326.38A3.64,3.64,0,0,0,1064.47,322.74Z" transform="translate(-2 -126)"/><path class="cls-20" d="M1050.94,323.74v-1a3.63,3.63,0,0,0-3.5,3.63v68.71a3.64,3.64,0,0,0,3.5,3.63v-75Z" transform="translate(-2 -126)"/><rect class="cls-21" x="1048.94" y="197.74" width="13" height="74"/><path class="cls-23" d="M1087.47,322.74h-.53v76h.53a3.64,3.64,0,0,0,3.64-3.64V326.38A3.64,3.64,0,0,0,1087.47,322.74Z" transform="translate(-2 -126)"/><path class="cls-23" d="M1073.94,323.74v-1a3.63,3.63,0,0,0-3.5,3.63v68.71a3.64,3.64,0,0,0,3.5,3.63v-75Z" transform="translate(-2 -126)"/><rect class="cls-21" x="1071.94" y="197.74" width="13" height="74"/><path class="cls-23" d="M1108.33,322.23l-.51.12.23,1,17.43,71.91.24,1,.51-.12a3.64,3.64,0,0,0,2.68-4.4l-16.18-66.78A3.64,3.64,0,0,0,1108.33,322.23Z" transform="translate(-2 -126)"/><path class="cls-23" d="M1095.42,326.39l-.23-1a3.64,3.64,0,0,0-2.56,4.35l16.19,66.78a3.63,3.63,0,0,0,4.26,2.7l-.23-1Z" transform="translate(-2 -126)"/><rect class="cls-21" x="1103.95" y="323.82" width="13" height="74" transform="translate(-55.75 145.73) rotate(-13.62)"/><path class="cls-23" d="M1284.82,395.14v-.53h-1l-74,.56h-1v.53a3.63,3.63,0,0,0,3.67,3.61l68.71-.52A3.64,3.64,0,0,0,1284.82,395.14Z" transform="translate(-2 -126)"/><path class="cls-23" d="M1283.72,381.62h1a3.63,3.63,0,0,0-3.66-3.47l-68.71.52a3.63,3.63,0,0,0-3.6,3.53h1Z" transform="translate(-2 -126)"/><rect class="cls-21" x="1209.77" y="381.9" width="74" height="13" transform="translate(-4.91 -116.52) rotate(-0.44)"/><path class="cls-23" d="M1211.36,325.44l-.52-.13-.24,1-17.68,71.86-.24,1,.52.13a3.64,3.64,0,0,0,4.4-2.66L1214,329.84A3.64,3.64,0,0,0,1211.36,325.44Z" transform="translate(-2 -126)"/><path class="cls-23" d="M1198,323.18l.24-1a3.63,3.63,0,0,0-4.27,2.68l-16.42,66.73a3.62,3.62,0,0,0,2.53,4.35l.24-1Z" transform="translate(-2 -126)"/><rect class="cls-21" x="1158.45" y="354.16" width="74" height="13" transform="translate(557.57 1309.29) rotate(-76.17)"/><path class="cls-23" d="M1283.64,373.75v-.53h-1l-74,.57h-1v.53a3.66,3.66,0,0,0,3.67,3.62l68.71-.53A3.63,3.63,0,0,0,1283.64,373.75Z" transform="translate(-2 -126)"/><path class="cls-23" d="M1282.54,360.22h1a3.64,3.64,0,0,0-3.66-3.48l-68.71.52a3.64,3.64,0,0,0-3.6,3.53h1Z" transform="translate(-2 -126)"/><rect class="cls-21" x="1208.59" y="360.51" width="74" height="13" transform="translate(-4.75 -116.53) rotate(-0.44)"/><path class="cls-22" d="M1337.27,541.26v-.53l-1,0-74-1.29-1,0v.53a3.64,3.64,0,0,0,3.58,3.7l68.7,1.2A3.64,3.64,0,0,0,1337.27,541.26Z" transform="translate(-2 -126)"/><path class="cls-22" d="M1336.5,527.71l1,0a3.64,3.64,0,0,0-3.56-3.57l-68.71-1.2a3.65,3.65,0,0,0-3.69,3.44l1,0Z" transform="translate(-2 -126)"/><rect class="cls-21" x="1292.9" y="496.56" width="13" height="74" transform="translate(741.16 1697.42) rotate(-89)"/><path class="cls-20" d="M1355.32,519v-.53h-1l-74-.74h-1v.53a3.64,3.64,0,0,0,3.6,3.68l68.71.69A3.64,3.64,0,0,0,1355.32,519Z" transform="translate(-2 -126)"/><path class="cls-20" d="M1354.46,505.43h1a3.63,3.63,0,0,0-3.59-3.54l-68.71-.68a3.63,3.63,0,0,0-3.66,3.47h1Z" transform="translate(-2 -126)"/><rect class="cls-21" x="1310.89" y="474.56" width="13" height="74" transform="translate(790.69 1697.78) rotate(-89.43)"/><path class="cls-23" d="M1343,496.14v-.53h-1l-74,.56h-1v.53a3.63,3.63,0,0,0,3.66,3.61l68.72-.52A3.65,3.65,0,0,0,1343,496.14Z" transform="translate(-2 -126)"/><path class="cls-23" d="M1341.87,482.62h1a3.64,3.64,0,0,0-3.65-3.48l-68.71.53a3.62,3.62,0,0,0-3.6,3.53h1Z" transform="translate(-2 -126)"/><rect class="cls-21" x="1267.92" y="482.9" width="74" height="13" transform="translate(-5.68 -116.08) rotate(-0.44)"/><path class="cls-18" d="M1341.79,474.74v-.53h-1l-74,.56h-1v.53a3.63,3.63,0,0,0,3.67,3.61l68.71-.52A3.63,3.63,0,0,0,1341.79,474.74Z" transform="translate(-2 -126)"/><path class="cls-18" d="M1340.69,461.22h1a3.62,3.62,0,0,0-3.65-3.47l-68.71.52a3.62,3.62,0,0,0-3.6,3.53h1Z" transform="translate(-2 -126)"/><rect class="cls-21" x="1266.74" y="461.5" width="74" height="13" transform="translate(-5.52 -116.08) rotate(-0.44)"/><path d="M188.79,408.37v13.54h15.65V408.37h4.22v32.36h-4.22V425.56H188.79v15.17h-4.18V408.37Z" transform="translate(-2 -126)"/><path d="M236.79,428.92c0,8.59-5.95,12.34-11.57,12.34-6.29,0-11.14-4.61-11.14-12,0-7.77,5.09-12.33,11.52-12.33C232.28,417,236.79,421.81,236.79,428.92Zm-18.43.24c0,5.09,2.92,8.93,7,8.93s7.06-3.79,7.06-9c0-3.93-2-8.93-7-8.93S218.36,424.74,218.36,429.16Z" transform="translate(-2 -126)"/><path d="M242.12,423.78c0-2.4-.05-4.37-.2-6.29h3.7l.19,3.75H246a8,8,0,0,1,7.29-4.27,6.88,6.88,0,0,1,6.58,4.65h.1a9.62,9.62,0,0,1,2.59-3,7.9,7.9,0,0,1,5.13-1.63c3.08,0,7.64,2,7.64,10.08v13.68h-4.13V427.58c0-4.47-1.63-7.16-5-7.16a5.47,5.47,0,0,0-5,3.84,6.78,6.78,0,0,0-.34,2.12v14.35h-4.13V426.81c0-3.7-1.63-6.39-4.85-6.39a6.32,6.32,0,0,0-5.57,6.29v14h-4.12Z" transform="translate(-2 -126)"/><path d="M284.5,429.88c.1,5.71,3.74,8.06,8,8.06a15.14,15.14,0,0,0,6.43-1.2l.72,3a18.85,18.85,0,0,1-7.73,1.44c-7.15,0-11.42-4.71-11.42-11.71S284.6,417,291.36,417c7.59,0,9.61,6.67,9.61,10.94a15.22,15.22,0,0,1-.15,2Zm12.39-3c0-2.69-1.11-6.87-5.86-6.87-4.27,0-6.15,3.94-6.48,6.87Z" transform="translate(-2 -126)"/><path d="M337.4,428.92c0,8.59-6,12.34-11.57,12.34-6.29,0-11.14-4.61-11.14-12,0-7.77,5.09-12.33,11.52-12.33C332.88,417,337.4,421.81,337.4,428.92Zm-18.44.24c0,5.09,2.93,8.93,7.06,8.93s7.06-3.79,7.06-9c0-3.93-2-8.93-7-8.93S319,424.74,319,429.16Z" transform="translate(-2 -126)"/><path d="M343.16,440.73v-20h-3.27v-3.22h3.27v-1.1c0-3.26.72-6.24,2.68-8.11a8.09,8.09,0,0,1,5.67-2.16,9.73,9.73,0,0,1,3.6.67l-.58,3.26a6.44,6.44,0,0,0-2.69-.52c-3.6,0-4.51,3.16-4.51,6.72v1.24H353v3.22h-5.62v20Z" transform="translate(-2 -126)"/><path d="M367.06,408.37h17.42v3.51H371.23v10.75h12.25v3.46H371.23v14.64h-4.17Z" transform="translate(-2 -126)"/><path d="M389,424.74c0-2.73,0-5.09-.19-7.25h3.7l.14,4.56h.19a7,7,0,0,1,6.44-5.08,4.44,4.44,0,0,1,1.2.14v4a6.82,6.82,0,0,0-1.44-.14c-3,0-5.09,2.26-5.67,5.43a12.41,12.41,0,0,0-.19,2v12.39H389Z" transform="translate(-2 -126)"/><path d="M406.61,429.88c.1,5.71,3.75,8.06,8,8.06a15.14,15.14,0,0,0,6.43-1.2l.72,3a18.85,18.85,0,0,1-7.73,1.44c-7.15,0-11.42-4.71-11.42-11.71S406.71,417,413.48,417c7.58,0,9.6,6.67,9.6,10.94a15.22,15.22,0,0,1-.15,2Zm12.39-3c0-2.69-1.11-6.87-5.86-6.87-4.27,0-6.14,3.94-6.48,6.87Z" transform="translate(-2 -126)"/><path d="M430.66,429.88c.09,5.71,3.74,8.06,8,8.06a15.14,15.14,0,0,0,6.43-1.2l.72,3a18.85,18.85,0,0,1-7.73,1.44c-7.15,0-11.42-4.71-11.42-11.71S430.75,417,437.52,417c7.59,0,9.6,6.67,9.6,10.94a15.62,15.62,0,0,1-.14,2Zm12.38-3c0-2.69-1.1-6.87-5.85-6.87-4.27,0-6.15,3.94-6.48,6.87Z" transform="translate(-2 -126)"/><path d="M479.43,425.56H466.85v11.66h14v3.51h-18.2V408.37h17.48v3.51h-13.3V422.1h12.58Z" transform="translate(-2 -126)"/><path d="M506,406.65v28.08c0,2.06.05,4.41.19,6h-3.79l-.19-4h-.1a8.6,8.6,0,0,1-7.92,4.56c-5.62,0-9.94-4.76-9.94-11.81,0-7.73,4.76-12.48,10.42-12.48,3.55,0,5.95,1.68,7,3.55h.09V406.65ZM501.79,427a7.06,7.06,0,0,0-.19-1.77,6.21,6.21,0,0,0-6.09-4.9c-4.37,0-7,3.84-7,9,0,4.7,2.3,8.59,6.86,8.59a6.35,6.35,0,0,0,6.19-5,7.09,7.09,0,0,0,.19-1.83Z" transform="translate(-2 -126)"/><path d="M532.47,434.39c0,2.4,0,4.51.19,6.34h-3.75l-.24-3.79h-.09a8.75,8.75,0,0,1-7.68,4.32c-3.65,0-8-2-8-10.18V417.49h4.23v12.87c0,4.42,1.34,7.39,5.18,7.39a5.93,5.93,0,0,0,6-6V417.49h4.23Z" transform="translate(-2 -126)"/><path d="M556,439.86a15.45,15.45,0,0,1-6.67,1.35c-7,0-11.57-4.75-11.57-11.86S542.69,417,550.27,417a14.22,14.22,0,0,1,5.86,1.2l-1,3.27a9.76,9.76,0,0,0-4.9-1.1c-5.32,0-8.2,3.93-8.2,8.78,0,5.38,3.45,8.69,8.06,8.69a12.1,12.1,0,0,0,5.18-1.15Z" transform="translate(-2 -126)"/><path d="M573.84,440.73l-.33-2.93h-.15a8.65,8.65,0,0,1-7.1,3.46c-4.71,0-7.11-3.32-7.11-6.68,0-5.61,5-8.68,14-8.64v-.48c0-1.92-.53-5.37-5.28-5.37a11.65,11.65,0,0,0-6.05,1.72l-1-2.78a14.42,14.42,0,0,1,7.64-2.06c7.1,0,8.83,4.84,8.83,9.5v8.69a32.57,32.57,0,0,0,.38,5.57Zm-.62-11.86c-4.61-.09-9.84.72-9.84,5.23a3.74,3.74,0,0,0,4,4,5.78,5.78,0,0,0,5.62-3.89,4.52,4.52,0,0,0,.24-1.35Z" transform="translate(-2 -126)"/><path d="M589,410.82v6.67h6v3.22h-6v12.53c0,2.88.82,4.51,3.17,4.51a9.18,9.18,0,0,0,2.45-.29l.19,3.17a10.26,10.26,0,0,1-3.75.58,5.88,5.88,0,0,1-4.56-1.78c-1.2-1.25-1.63-3.31-1.63-6.05V420.71h-3.6v-3.22h3.6v-5.56Z" transform="translate(-2 -126)"/><path d="M604.51,411a2.62,2.62,0,0,1-5.23,0,2.57,2.57,0,0,1,2.64-2.64A2.51,2.51,0,0,1,604.51,411Zm-4.7,29.76V417.49H604v23.24Z" transform="translate(-2 -126)"/><path d="M632.07,428.92c0,8.59-6,12.34-11.57,12.34-6.29,0-11.14-4.61-11.14-12,0-7.77,5.09-12.33,11.52-12.33C627.55,417,632.07,421.81,632.07,428.92Zm-18.44.24c0,5.09,2.93,8.93,7.06,8.93s7.06-3.79,7.06-9c0-3.93-2-8.93-7-8.93S613.63,424.74,613.63,429.16Z" transform="translate(-2 -126)"/><path d="M637.39,423.78c0-2.4,0-4.37-.19-6.29h3.74l.24,3.84h.1A8.55,8.55,0,0,1,649,417c3.22,0,8.21,1.92,8.21,9.89v13.87h-4.23V427.34c0-3.75-1.39-6.87-5.37-6.87a6,6,0,0,0-5.67,4.32,6.16,6.16,0,0,0-.28,2v14h-4.23Z" transform="translate(-2 -126)"/><g id="Layer_2-2" data-name="Layer 2"><g id="Layer_1-2" data-name="Layer 1-2"><path class="cls-24" d="M609.52,274.32l-.61-15.88a8.37,8.37,0,0,0-8.67-8l-58.91,2.29a8.38,8.38,0,0,0-8,8.67L534.81,300a8.35,8.35,0,0,0,8.65,8h0l36.09-1.38C579.82,291.8,592.36,279.38,609.52,274.32Z" transform="translate(-2 -126)"/><path class="cls-25" d="M624.66,347.28c-2,8.69-14.32,10.39-14.32,10.39,6-3.28,7.41-7,7.41-9.75a4.42,4.42,0,0,0-3.68-4.37,44.28,44.28,0,0,1-16.55-6.72c-18.71-12.64-21.8-33.21-11.21-48.86s33.49-16.84,53-5.46c21.09,12.35,25.63,28.15,14,47.56-6,9.87-14.52,15.45-25.31,14.69A3.29,3.29,0,0,0,624.66,347.28Z" transform="translate(-2 -126)"/><path class="cls-26" d="M563.55,267.28l.84,23.73a.61.61,0,0,0,.61.62.6.6,0,0,0,.35-.1l19.51-12.35a.47.47,0,0,0,.17-.64.46.46,0,0,0-.17-.17l-20.47-11.53a.53.53,0,0,0-.75.15A.52.52,0,0,0,563.55,267.28Z" transform="translate(-2 -126)"/><path class="cls-27" d="M594.14,296.19a14.29,14.29,0,0,1,10.62-1.33c4,1.36,4,4.2,8.34,5.95,5.36,2.22,7.68-1.23,13.44,1,4.37,1.71,4.17,4.15,7.8,4.67,4,.59,5.63-2.17,9.73-1.75a11.94,11.94,0,0,1,7.11,3.8" transform="translate(-2 -126)"/><path class="cls-27" d="M593.82,306A13.25,13.25,0,0,1,604,304.44c3.8,1.26,3.75,4.07,7.83,5.73,5.06,2.05,7.4-1.41,12.76.69,4.12,1.58,3.9,4,7.41,4.47s5.41-2.3,9.28-2a10.73,10.73,0,0,1,6.64,3.73" transform="translate(-2 -126)"/><path class="cls-27" d="M595.25,316.59a12,12,0,0,1,9.39-1.93c3.45,1.09,3.28,3.85,7,5.31,4.57,1.83,6.79-1.65,11.68.2,3.73,1.4,3.43,3.8,6.59,4.1s4.94-2.47,8.59-2.3a8.76,8.76,0,0,1,6,3.33" transform="translate(-2 -126)"/><path d="M213.46,379.94c8.27-5.26,12.34-12.64,16.49-21.3,5.41-11.09,11.06-22,17.48-32.6a262.38,262.38,0,0,1,48.67-59.25l-5.24-5.24C272.27,281.85,266,316.44,265.38,343c-.14,7.19-.54,28.25,9.88,30,8.22,1.33,18.49-11.09,22.67-16.64,2.86-3.8-3.58-7.41-6.4-3.73-1.53,2-8,10.52-11.46,10.74-8,.5-7.13-10.89-7.4-15.87-.45-10.89,1.7-21.78,3.85-32.42,3.48-17.29,7.16-35,19.43-48.37a3.7,3.7,0,0,0-5.23-5.24,261.71,261.71,0,0,0-43.06,50.45c-6.08,9.13-11.63,18.61-16.77,28.29-5.83,11.06-10.15,26.27-21.16,33.36C205.71,376,209.43,382.54,213.46,379.94Z" transform="translate(-2 -126)"/><path d="M217.61,348.19c15.92-18.62,45.08-9.18,65-21a3.71,3.71,0,0,0-3.75-6.4c-20.81,12.35-49.38,2.1-66.52,22.23-3.08,3.58,2.13,8.86,5.24,5.23Z" transform="translate(-2 -126)"/><path d="M317.11,338.36c4.22-5.55-2-11.11-7.83-8.76-8.51,3.46-14,17.28-15.5,25.28-1.16,6.27-2.47,19.16,5.68,21.88s20.19-8.22,25.77-13c3.63-3.13-1.63-8.34-5.23-5.23a74,74,0,0,1-10.57,7.7c-1.48.87-6.74,3.7-8.44,1.95-1.09-1.13-.59-5.87-.5-7.41a35.93,35.93,0,0,1,3.63-13.85,38.3,38.3,0,0,1,2.47-4.37,27.15,27.15,0,0,1,3.36-4.2,2.7,2.7,0,0,0,.7-3.77l0-.05c-2.87,3.8,3.55,7.41,6.42,3.75Z" transform="translate(-2 -126)"/><path d="M358.86,327.7c-9.16-4.37-17.58,0-23.4,7.41s-13.16,19.11-11.95,29.2c1,8,8.74,12.35,15.58,7.41,8.81-6.05,15.18-17.28,18.93-26.84,1.73-4.44-5.43-6.37-7.13-2a55.87,55.87,0,0,1-7.95,14.1,20.54,20.54,0,0,1-4.67,5.38c-1.33,2.62-2.84,2.47-4.52-.27-2.79-.89-3.48-2.47-2.05-4.94,0-4.32,4.67-10.52,7-14.1,3.46-5.21,8.91-12.76,16.37-9.21,4.3,2,8.05-4.34,3.75-6.39Z" transform="translate(-2 -126)"/><path d="M354.3,329.25a104.55,104.55,0,0,0-3.91,20.05c-.51,5.66-1.75,13.83.89,19.11,4.72,9.46,15.61,3.34,20.64-2,3.29-3.46-1.95-8.69-5.23-5.24a27.24,27.24,0,0,1-4.17,3.86c-4.1.22-5.78-1.31-5.09-4.62a27.83,27.83,0,0,1,.15-8.35,95.24,95.24,0,0,1,3.88-20.89C362.79,326.64,355.65,324.66,354.3,329.25Z" transform="translate(-2 -126)"/><path d="M403.75,330.91c-4.64-5.36-14.39-4.5-19.75-1.41-8.77,4.94-12.64,14.81-12.5,24.47,0,6.49,1.09,18.84,9.17,20.29,8.88,1.63,19.75-10.39,23.77-16.76,2.62-4-3.8-7.73-6.39-3.75A29.56,29.56,0,0,1,387.65,364a3.37,3.37,0,0,1-4.59.74c-2.47.35-3.58-.76-3.31-3.28a22.27,22.27,0,0,1-.91-9c.24-6.13,2.12-12,7.41-15.61,2.71-1.9,9.35-4.22,12.34-.79s8.35-1.65,5.24-5.23Z" transform="translate(-2 -126)"/><path d="M406.29,293.77c-9,18.5-10.09,39.93-8.71,60.35.54,7.85,6.34,28.24,17,16.42,3.18-3.56-2-8.79-5.24-5.24-2.25,2.47-4.49-17.28-4.52-19.36v-13a86.42,86.42,0,0,1,7.8-35.31c2.08-4.27-4.32-8-6.39-3.72Z" transform="translate(-2 -126)"/><path d="M409.85,356.59c6.94,2.47,12.86-2.3,18.25-6.25s12.12-8.94,15.38-15.48c7-14-7.53-15.48-16.62-9-11,7.83-16.91,25.83-11.45,38.64,6,13.9,22.07,10.57,30.86,1.78A3.7,3.7,0,0,0,441,361c-6.86,6.84-18.29,7.53-19.75-4.08a28.85,28.85,0,0,1,6.47-22c1.9-2.13,4.27-5.43,7.16-3.51,3.33,2.2-1.09,4.52-3.13,6.5-3.73,3.6-14.08,13.6-19.91,11.53-4.49-1.61-6.44,5.53-2,7.13Z" transform="translate(-2 -126)"/><path d="M453.7,329.43a270.45,270.45,0,0,0-6.91,38.32c-.4,3.75,5.21,4.93,6.91,1.85,3.21-5.63,6.59-11.16,10.27-16.52,1.58-2.27,3.19-4.54,4.94-6.77.42-.56,5.36-8.09,6.59-8.09l-3.21-1.83c2.47,4.94.45,13.31.79,18.76a96.39,96.39,0,0,0,2.08,14.55c1,4.66,8.12,2.69,7.13-2a96.34,96.34,0,0,1-1.92-20.81c0-4.94.44-9.88-1.68-14.25a3.69,3.69,0,0,0-3.19-1.85c-6.17,0-9.68,7.41-13,11.75a229.84,229.84,0,0,0-15.12,23.31l6.89,1.88A256.26,256.26,0,0,1,461,331.38a3.71,3.71,0,1,0-7.16-1.95Z" transform="translate(-2 -126)"/><path d="M480.64,349.18c2.47-3.31,9.87-15.63,15-15.58L492,329.92c0,11-1.81,27.51,4.93,37,6.08,8.69,13.58,2.32,18.13-4.3,2.71-3.93-3.71-7.65-6.4-3.73-6.84,9.88-8.15-4-8.56-9.55-.52-6.5-.57-13-.65-19.51a3.74,3.74,0,0,0-3.7-3.7c-9.46,0-16.52,12.34-21.36,19.26-2.76,3.87,3.66,7.58,6.4,3.72Z" transform="translate(-2 -126)"/><path d="M514.81,325.8c-1.46,7.68-2.62,15.4-3.36,23.21-.57,5.75-2.27,13.35-.2,19,3.63,9.87,12.84,2.67,16.84-2.74,2.84-3.83-3.6-7.41-6.42-3.73-4.76,6.44-3.63.79-3.55-2.89,0-3.18.44-6.44.74-9.6.69-7.14,1.78-14.2,3.09-21.24C522.81,323.11,515.67,321.11,514.81,325.8Z" transform="translate(-2 -126)"/><path d="M526.24,359.3a77.72,77.72,0,0,0,23.19-10.49c5.26-3.58,13.35-8.67,14.52-15.43,2.46-14.82-15.78-8.5-21.86-3.53-9.4,7.67-17,23.58-9.65,35.08,8.72,13.71,30.91,6.59,42.47,1.36,4.34-2,.59-8.35-3.73-6.4-7,3.17-26.1,10.3-32.35,1.31-4.93-7.11.4-18,5.39-23.23,1.16-1.21,9.21-9.58,10.22-2.77.17,1.31-8.64,7.14-8.77,7.21a69.8,69.8,0,0,1-21.4,9.73,3.73,3.73,0,0,0,2,7.16Z" transform="translate(-2 -126)"/><path d="M520.71,307.87a30.45,30.45,0,0,1-8.37,6.08,3.7,3.7,0,0,0,3.75,6.39h0a37.21,37.21,0,0,0,9.88-7.23C529.28,309.7,524,304.44,520.71,307.87Z" transform="translate(-2 -126)"/></g></g></g></svg>