<svg xmlns="http://www.w3.org/2000/svg" viewBox="0 0 183.91 53.71"><defs><style>.cls-1{fill:#d2ffde;stroke:#7db77d;}.cls-1,.cls-2,.cls-3,.cls-4{stroke-miterlimit:10;stroke-width:2px;}.cls-2{fill:#d6fcfa;}.cls-2,.cls-4{stroke:#82bcb6;}.cls-3{fill:#d8b6a7;stroke:#a86863;}.cls-4{fill:none;}</style></defs><title>Asset 21</title><g id="Layer_2" data-name="Layer 2"><g id="Layer_1-2" data-name="Layer 1"><path class="cls-1" d="M162.62,10.68l-.25-6.43A3.39,3.39,0,0,0,158.86,1L135,1.93a3.39,3.39,0,0,0-3.25,3.51l.61,15.62a3.38,3.38,0,0,0,3.51,3.25l14.62-.56C150.59,17.76,155.67,12.73,162.62,10.68Z"/><path class="cls-2" d="M168.75,40.23c-.8,3.52-5.8,4.21-5.8,4.21,2.44-1.33,3-2.84,3-3.95a1.79,1.79,0,0,0-1.49-1.77A17.94,17.94,0,0,1,157.76,36c-7.58-5.12-8.83-13.45-4.54-19.79S166.78,9.39,174.7,14c8.54,5,10.38,11.4,5.68,19.26-2.41,4-5.88,6.26-10.25,5.95A1.33,1.33,0,0,0,168.75,40.23Z"/><path class="cls-3" d="M144,7.83l.34,9.61a.25.25,0,0,0,.39.21l7.9-5a.19.19,0,0,0,0-.33l-8.29-4.67A.22.22,0,0,0,144,7.83Z"/><path class="cls-4" d="M156.39,19.54a5.77,5.77,0,0,1,4.3-.54c1.63.55,1.63,1.7,3.38,2.41,2.17.9,3.11-.5,5.44.41,1.77.69,1.69,1.68,3.16,1.89,1.62.24,2.28-.88,3.94-.71a4.85,4.85,0,0,1,2.88,1.54"/><path class="cls-4" d="M156.26,23.52a5.37,5.37,0,0,1,4.11-.64c1.54.51,1.52,1.65,3.17,2.32,2.05.83,3-.57,5.17.28,1.67.64,1.58,1.63,3,1.81s2.19-.93,3.76-.8A4.35,4.35,0,0,1,178.16,28"/><path class="cls-4" d="M156.84,27.8a4.85,4.85,0,0,1,3.8-.78c1.4.44,1.33,1.56,2.82,2.15,1.85.74,2.75-.67,4.73.08,1.51.57,1.39,1.54,2.67,1.66s2-1,3.48-.93a3.54,3.54,0,0,1,2.43,1.35"/><path d="M2.21,53.46c3.35-2.13,5-5.12,6.68-8.63,2.19-4.49,4.48-8.92,7.08-13.2a106.29,106.29,0,0,1,19.71-24L33.56,5.51c-7.53,8.22-10.08,22.23-10.32,33-.06,2.91-.22,11.44,4,12.13,3.33.54,7.49-4.49,9.18-6.74,1.16-1.54-1.45-3-2.59-1.51-.62.82-3.26,4.26-4.64,4.35-3.26.2-2.89-4.41-3-6.43-.18-4.41.69-8.82,1.56-13.13,1.41-7,2.9-14.16,7.87-19.59a1.5,1.5,0,0,0-2.12-2.12A106.14,106.14,0,0,0,16.06,25.9c-2.46,3.7-4.71,7.54-6.79,11.46C6.91,41.84,5.16,48,.7,50.87c-1.63,1-.12,3.64,1.51,2.59Z"/><path d="M3.89,40.6c6.45-7.54,18.26-3.72,26.34-8.51a1.5,1.5,0,0,0-1.52-2.59c-8.43,5-20,.85-26.94,9-1.25,1.45.86,3.59,2.12,2.12Z"/><path d="M44.19,36.62c1.71-2.25-.81-4.5-3.17-3.55-3.45,1.4-5.67,7-6.28,10.24-.47,2.54-1,7.76,2.3,8.86s8.18-3.33,10.44-5.28c1.47-1.27-.66-3.38-2.12-2.12a29.84,29.84,0,0,1-4.28,3.12c-.6.35-2.73,1.5-3.42.79-.44-.46-.24-2.38-.2-3a14.46,14.46,0,0,1,1.47-5.61,14.84,14.84,0,0,1,1-1.77,10.68,10.68,0,0,1,1.36-1.7,1.1,1.1,0,0,0,.27-1.55c-1.16,1.54,1.44,3,2.6,1.52Z"/><path d="M61.1,32.3c-3.71-1.77-7.12,0-9.48,3s-5.33,7.74-4.84,11.83c.4,3.24,3.54,5,6.31,3,3.57-2.45,6.15-7,7.67-10.87.7-1.8-2.2-2.58-2.89-.8a22.5,22.5,0,0,1-3.22,5.71,8.24,8.24,0,0,1-1.89,2.18c-.54,1.06-1.15,1-1.83-.11-1.13-.36-1.41-1-.83-2,0-1.75,1.89-4.26,2.85-5.71,1.4-2.11,3.61-5.17,6.63-3.73,1.74.82,3.26-1.76,1.52-2.59Z"/><path d="M59.25,32.93a42.39,42.39,0,0,0-1.58,8.12c-.21,2.29-.71,5.6.36,7.74,1.91,3.83,6.32,1.35,8.36-.8,1.33-1.4-.79-3.52-2.12-2.12a10.86,10.86,0,0,1-1.69,1.56c-1.66.09-2.34-.53-2.06-1.87a11.28,11.28,0,0,1,.06-3.38,38.6,38.6,0,0,1,1.57-8.46c.54-1.85-2.35-2.65-2.9-.79Z"/><path d="M79.28,33.6c-1.88-2.17-5.83-1.82-8-.57-3.55,2-5.12,6-5.06,9.91,0,2.63.44,7.63,3.71,8.22,3.6.66,8-4.21,9.63-6.79,1.06-1.63-1.54-3.13-2.59-1.52A12,12,0,0,1,72.76,47a1.37,1.37,0,0,1-1.86.3c-1,.14-1.45-.31-1.34-1.33a9.08,9.08,0,0,1-.37-3.63c.1-2.48.86-4.85,3-6.32,1.1-.77,3.79-1.71,5-.32s3.38-.67,2.12-2.12Z"/><path d="M80.31,18.56C76.66,26.05,76.22,34.73,76.78,43c.22,3.18,2.57,11.44,6.88,6.65,1.29-1.44-.82-3.56-2.12-2.12-.91,1-1.82-7-1.83-7.84,0-1.76,0-3.51,0-5.27a34.9,34.9,0,0,1,3.16-14.3c.84-1.73-1.75-3.25-2.59-1.51Z"/><path d="M81.75,44c2.81,1,5.21-.93,7.39-2.53s4.91-3.62,6.23-6.27c2.82-5.68-3.05-6.27-6.73-3.66C84.18,34.71,81.79,42,84,47.19c2.42,5.63,8.94,4.28,12.5.72a1.5,1.5,0,0,0-2.12-2.12c-2.78,2.77-7.41,3.05-8-1.65A11.68,11.68,0,0,1,89,35.22c.77-.86,1.73-2.2,2.9-1.42,1.35.89-.44,1.83-1.27,2.63-1.51,1.46-5.7,5.51-8.06,4.67-1.82-.65-2.61,2.24-.8,2.89Z"/><path d="M99.51,33a110.22,110.22,0,0,0-2.8,15.52c-.16,1.52,2.11,2,2.8.75,1.3-2.28,2.67-4.52,4.16-6.69.64-.92,1.29-1.84,2-2.74.17-.23,2.17-3.28,2.67-3.28l-1.3-.74c1,2,.18,5.39.32,7.6a39.23,39.23,0,0,0,.84,5.89c.4,1.89,3.29,1.09,2.89-.8a39.15,39.15,0,0,1-.78-8.43c0-2,.18-4-.68-5.77a1.49,1.49,0,0,0-1.29-.75c-2.5,0-3.92,3-5.26,4.76a92.84,92.84,0,0,0-6.12,9.44l2.79.76a103.7,103.7,0,0,1,2.7-14.73,1.5,1.5,0,0,0-2.9-.79Z"/><path d="M110.42,41c1-1.34,4-6.33,6.06-6.31L115,33.2c0,4.46-.73,11.14,2,15,2.46,3.52,5.5.94,7.34-1.74,1.1-1.59-1.5-3.1-2.59-1.51-2.77,4-3.3-1.62-3.47-3.87-.21-2.63-.23-5.26-.26-7.9a1.52,1.52,0,0,0-1.5-1.5c-3.83,0-6.69,5-8.65,7.8-1.12,1.57,1.48,3.07,2.59,1.51Z"/><path d="M124.26,31.53c-.59,3.11-1.06,6.24-1.36,9.4-.23,2.33-.92,5.41-.08,7.68,1.47,4,5.2,1.08,6.82-1.11,1.15-1.55-1.46-3-2.6-1.51-1.93,2.61-1.47.32-1.44-1.17,0-1.29.18-2.61.3-3.89.28-2.89.72-5.75,1.25-8.6.35-1.89-2.54-2.7-2.89-.8Z"/><path d="M128.89,45.1a31.49,31.49,0,0,0,9.39-4.25c2.13-1.45,5.41-3.51,5.88-6.25,1-6-6.39-3.44-8.85-1.43-3.81,3.11-6.87,9.55-3.91,14.21,3.53,5.55,12.52,2.67,17.2.55,1.76-.8.24-3.38-1.51-2.59-2.84,1.28-10.57,4.17-13.1.53-2-2.88.16-7.28,2.18-9.41.47-.49,3.73-3.88,4.14-1.12.07.53-3.5,2.89-3.55,2.92a28.36,28.36,0,0,1-8.67,3.94,1.51,1.51,0,0,0,.8,2.9Z"/><path d="M126.65,24.27a12.33,12.33,0,0,1-3.39,2.46,1.5,1.5,0,0,0,1.52,2.59,15,15,0,0,0,4-2.93c1.34-1.38-.78-3.51-2.13-2.12Z"/></g></g></svg>